<svg version="1.1" xmlns="http://www.w3.org/2000/svg" viewBox="0 0 1580.926189031251 874.8492263002067" width="3161.852378062502" height="1749.6984526004135">
  <!-- svg-source:excalidraw -->
  
  <defs>
    <style class="style-fonts">
      @font-face {
        font-family: "Virgil";
        src: url("https://excalidraw.com/Virgil.woff2");
      }
      @font-face {
        font-family: "Cascadia";
        src: url("https://excalidraw.com/Cascadia.woff2");
      }
      @font-face {
        font-family: "Assistant";
        src: url("https://excalidraw.com/Assistant-Regular.woff2");
      }
    </style>
    
  </defs>
  <rect x="0" y="0" width="1580.926189031251" height="874.8492263002067" fill="#ffffff"></rect><g stroke-opacity="0.4" fill-opacity="0.4" stroke-linecap="round" transform="translate(994.3148265375356 10) rotate(0 288.3056812468577 427.42461315010337)"><path d="M32 0 C147.4 0.27, 263.61 -0.43, 544.61 0 M32 0 C151.72 0.83, 271.61 1.3, 544.61 0 M544.61 0 C565.83 1.29, 576.9 12.4, 576.61 32 M544.61 0 C564.57 1.67, 578.48 9.53, 576.61 32 M576.61 32 C575.23 301.72, 575.4 572.32, 576.61 822.85 M576.61 32 C576.56 273.77, 576.02 514.65, 576.61 822.85 M576.61 822.85 C575.06 842.71, 567.75 856.35, 544.61 854.85 M576.61 822.85 C577.97 843.03, 564.68 854.88, 544.61 854.85 M544.61 854.85 C414.92 854.44, 286.07 854.37, 32 854.85 M544.61 854.85 C415.68 856.1, 286.95 855.92, 32 854.85 M32 854.85 C9.21 856.46, 0.32 843.62, 0 822.85 M32 854.85 C9.04 853.35, -1.85 842.12, 0 822.85 M0 822.85 C2.59 647.04, 1.61 471.11, 0 32 M0 822.85 C0.82 555.26, 0.57 287.62, 0 32 M0 32 C-0.61 10.19, 10.08 -1.74, 32 0 M0 32 C-0.24 8.47, 9.48 -1.11, 32 0" stroke="#1e1e1e" stroke-width="2" fill="none"></path></g><g stroke-linecap="round" transform="translate(10 235.9552589152455) rotate(0 185.69123529435245 138.04721256959758)"><path d="M32 0 C125.82 -0.59, 219.3 -2.04, 339.38 0 M32 0 C152.66 -0.92, 272.09 -0.03, 339.38 0 M339.38 0 C361.74 1.36, 371.56 11.92, 371.38 32 M339.38 0 C362.27 -0.12, 372.06 8.67, 371.38 32 M371.38 32 C369.61 116.22, 371.84 200.15, 371.38 244.09 M371.38 32 C371.82 75.92, 372.89 119.35, 371.38 244.09 M371.38 244.09 C370.1 266.63, 361.68 274.38, 339.38 276.09 M371.38 244.09 C372.67 265.84, 359.53 274.3, 339.38 276.09 M339.38 276.09 C260.56 276.11, 180.11 275.84, 32 276.09 M339.38 276.09 C254.95 278.05, 171.41 277.98, 32 276.09 M32 276.09 C10.98 277.51, -0.09 267.28, 0 244.09 M32 276.09 C10.44 275.65, -0.2 265.96, 0 244.09 M0 244.09 C-2.96 183.73, -1.88 125.26, 0 32 M0 244.09 C-1.87 196.79, -1.79 148.25, 0 32 M0 32 C-0.78 9.52, 11.67 -0.25, 32 0 M0 32 C1.62 12.94, 9.06 0.83, 32 0" stroke="#1e1e1e" stroke-width="2" fill="none"></path></g><g transform="translate(155.90790246964542 351.50247148484306) rotate(0 39.78333282470703 22.5)"><text x="39.78333282470703" y="31.536" font-family="Virgil, Segoe UI Emoji" font-size="36px" fill="#1e1e1e" text-anchor="middle" style="white-space: pre;" direction="ltr" dominant-baseline="alphabetic">dApp</text></g><g stroke-linecap="round" transform="translate(1088.4347376826236 74.54971335819795) rotate(0 188.9057626495785 78.27171042054249)"><path d="M32 0 C154.64 -2.6, 279 -1.83, 345.81 0 M32 0 C130.77 -1.62, 230.9 -1.92, 345.81 0 M345.81 0 C368.48 -1.9, 376.63 12.41, 377.81 32 M345.81 0 C368.18 1.09, 376.84 11.56, 377.81 32 M377.81 32 C378.42 53.95, 379.22 75.03, 377.81 124.54 M377.81 32 C378.99 64.38, 379.46 96.57, 377.81 124.54 M377.81 124.54 C378.96 143.9, 365.76 156.49, 345.81 156.54 M377.81 124.54 C379.18 144.34, 368.53 156.8, 345.81 156.54 M345.81 156.54 C242.78 157.31, 138.72 158.05, 32 156.54 M345.81 156.54 C258.35 158.49, 169.42 158.22, 32 156.54 M32 156.54 C11.99 157.23, -0.07 144.48, 0 124.54 M32 156.54 C12.78 155.15, -1.37 146.53, 0 124.54 M0 124.54 C-0.74 104.17, 1.2 86.7, 0 32 M0 124.54 C-0.83 101, -1.07 78.75, 0 32 M0 32 C1.79 12.33, 9.52 -0.91, 32 0 M0 32 C-1.58 12.91, 11.82 1.34, 32 0" stroke="#1e1e1e" stroke-width="2" fill="none"></path></g><g transform="translate(1206.540497280444 130.32142377874044) rotate(0 70.80000305175781 22.5)"><text x="70.80000305175781" y="31.536" font-family="Virgil, Segoe UI Emoji" font-size="36px" fill="#1e1e1e" text-anchor="middle" style="white-space: pre;" direction="ltr" dominant-baseline="alphabetic">Provider</text></g><g stroke-linecap="round" transform="translate(543.5386383224982 63.36054475810414) rotate(0 159.06574492467252 92.43008707063137)"><path d="M163.8 0.59 C180.14 -0.36, 198.01 2.88, 214.16 6.34 C230.31 9.79, 247.17 14.97, 260.7 21.33 C274.23 27.7, 286.26 36.17, 295.34 44.55 C304.43 52.93, 311.57 61.95, 315.22 71.61 C318.86 81.28, 319.2 92.4, 317.21 102.53 C315.23 112.66, 310.73 123.29, 303.29 132.39 C295.85 141.49, 284.74 150.15, 272.6 157.13 C260.46 164.12, 245.54 169.7, 230.42 174.31 C215.31 178.92, 198.87 183.28, 181.91 184.79 C164.95 186.29, 145.6 185.44, 128.66 183.34 C111.72 181.24, 95.25 177.18, 80.27 172.19 C65.29 167.19, 50.13 160.73, 38.78 153.38 C27.44 146.03, 18.48 137.53, 12.2 128.09 C5.93 118.66, 2.07 106.75, 1.12 96.79 C0.18 86.82, 1.92 77.78, 6.51 68.32 C11.1 58.86, 18.84 48.28, 28.64 40 C38.43 31.73, 51.54 24.54, 65.27 18.66 C78.99 12.77, 92.8 7.86, 110.99 4.69 C129.19 1.52, 162.28 -0.2, 174.44 -0.38 C186.59 -0.56, 184.26 2, 183.92 3.62 M130.15 0.62 C145.74 -2.54, 164.34 0.64, 181.36 2.35 C198.38 4.05, 216.67 6.53, 232.27 10.86 C247.88 15.2, 263.07 21.24, 274.97 28.34 C286.87 35.43, 296.86 44.55, 303.68 53.43 C310.5 62.32, 314.04 71.68, 315.88 81.66 C317.73 91.65, 318.24 103.27, 314.76 113.34 C311.27 123.4, 304.14 133.33, 294.98 142.05 C285.81 150.77, 273.55 159.2, 259.76 165.65 C245.98 172.1, 228.35 177.59, 212.25 180.75 C196.16 183.91, 180.24 184.5, 163.21 184.61 C146.18 184.73, 126.87 184.53, 110.1 181.46 C93.32 178.39, 76.34 172.19, 62.58 166.19 C48.81 160.19, 37.19 153.46, 27.52 145.47 C17.85 137.47, 8.93 127.87, 4.55 118.2 C0.18 108.52, 0.18 97.85, 1.27 87.4 C2.35 76.96, 4.49 65.06, 11.05 55.55 C17.62 46.04, 29.26 37.76, 40.65 30.32 C52.04 22.88, 64.48 15.49, 79.4 10.91 C94.32 6.34, 121.71 4.05, 130.18 2.88 C138.65 1.71, 129.77 2.68, 130.22 3.91" stroke="#1e1e1e" stroke-width="2" fill="none"></path></g><g transform="translate(630.1779194082029 133.432690475429) rotate(0 72.44999694824219 22.5)"><text x="72.44999694824219" y="31.536" font-family="Virgil, Segoe UI Emoji" font-size="36px" fill="#1e1e1e" text-anchor="middle" style="white-space: pre;" direction="ltr" dominant-baseline="alphabetic">Auth JS</text></g><g stroke-linecap="round"><g transform="translate(388.9085965906801 313.43819791762104) rotate(0 88.5744453848514 -45.439625101587865)"><path d="M0 0 C69.41 -34.05, 139.68 -69.18, 177.15 -90.88 M0 0 C49.33 -24.15, 98.32 -49.74, 177.15 -90.88" stroke="#1e1e1e" stroke-width="2" fill="none"></path></g><g transform="translate(388.9085965906801 313.43819791762104) rotate(0 88.5744453848514 -45.439625101587865)"><path d="M160.27 -72.44 C167.43 -78.8, 174.96 -85.57, 177.15 -90.88 M160.27 -72.44 C165.01 -76.9, 170.12 -82.66, 177.15 -90.88" stroke="#1e1e1e" stroke-width="2" fill="none"></path></g><g transform="translate(388.9085965906801 313.43819791762104) rotate(0 88.5744453848514 -45.439625101587865)"><path d="M152.36 -87.6 C162.72 -87.99, 173.35 -88.83, 177.15 -90.88 M152.36 -87.6 C159.12 -87.91, 166.4 -89.52, 177.15 -90.88" stroke="#1e1e1e" stroke-width="2" fill="none"></path></g></g><mask></mask><g stroke-linecap="round"><g transform="translate(872.5454931360727 160.65790237298188) rotate(0 99.94462227327551 -1.221458282588543)"><path d="M0 0 C68.1 -1.46, 135.83 -1.48, 199.89 -2.44 M0 0 C64.15 -2.9, 127.83 -3.67, 199.89 -2.44" stroke="#1e1e1e" stroke-width="2" fill="none"></path></g><g transform="translate(872.5454931360727 160.65790237298188) rotate(0 99.94462227327551 -1.221458282588543)"><path d="M176.32 5.9 C185.07 2.64, 193.51 0.64, 199.89 -2.44 M176.32 5.9 C184.42 2.28, 192.05 -0.36, 199.89 -2.44" stroke="#1e1e1e" stroke-width="2" fill="none"></path></g><g transform="translate(872.5454931360727 160.65790237298188) rotate(0 99.94462227327551 -1.221458282588543)"><path d="M176.47 -11.2 C185.32 -8.71, 193.7 -4.96, 199.89 -2.44 M176.47 -11.2 C184.53 -9.38, 192.12 -6.59, 199.89 -2.44" stroke="#1e1e1e" stroke-width="2" fill="none"></path></g></g><mask></mask><g stroke-linecap="round" transform="translate(1092.9927027330054 365.54947037300764) rotate(0 197.18450125175127 63.97207101678947)"><path d="M0 0 C94.11 -0.81, 188.14 -2.97, 394.37 0 M0 0 C150.1 0.97, 301.47 1.1, 394.37 0 M394.37 0 C395.07 48.95, 393.97 94.78, 394.37 127.94 M394.37 0 C395.74 46.7, 396.3 92.85, 394.37 127.94 M394.37 127.94 C313.07 128.2, 232.99 129.12, 0 127.94 M394.37 127.94 C258.58 129.39, 123.43 130, 0 127.94 M0 127.94 C2.08 87.26, 1.91 44.25, 0 0 M0 127.94 C-0.51 89.5, -0.36 52.8, 0 0" stroke="#1e1e1e" stroke-width="2" fill="none"></path></g><g transform="translate(1207.2938726859288 407.02154138979716) rotate(0 82.88333129882812 22.5)"><text x="82.88333129882812" y="31.536" font-family="Virgil, Segoe UI Emoji" font-size="36px" fill="#1e1e1e" text-anchor="middle" style="white-space: pre;" direction="ltr" dominant-baseline="alphabetic">Authorize</text></g><g stroke-linecap="round"><g transform="translate(1263.8278687527759 241.629710602049) rotate(0 2.202178780573604 54.43375388350398)"><path d="M0 0 C1.21 34.68, 3.07 67.1, 4.4 108.87 M0 0 C2.33 22.87, 2.36 44.57, 4.4 108.87" stroke="#1e1e1e" stroke-width="2" fill="none"></path></g><g transform="translate(1263.8278687527759 241.629710602049) rotate(0 2.202178780573604 54.43375388350398)"><path d="M-4.84 85.64 C-1.5 93.83, 1.85 99.72, 4.4 108.87 M-4.84 85.64 C-2.29 90.66, -1.25 94.52, 4.4 108.87" stroke="#1e1e1e" stroke-width="2" fill="none"></path></g><g transform="translate(1263.8278687527759 241.629710602049) rotate(0 2.202178780573604 54.43375388350398)"><path d="M12.25 85.13 C10.3 93.38, 8.35 99.43, 4.4 108.87 M12.25 85.13 C11.24 90.32, 8.73 94.28, 4.4 108.87" stroke="#1e1e1e" stroke-width="2" fill="none"></path></g></g><mask></mask><g stroke-linecap="round" transform="translate(1088.171146759756 654.6547080856003) rotate(0 208.47369025471414 70.74558441856732)"><path d="M32 0 C153.52 0.81, 275.93 -0.31, 384.95 0 M32 0 C124.3 -0.02, 217.7 0.11, 384.95 0 M384.95 0 C407.66 0.99, 417.99 9.13, 416.95 32 M384.95 0 C407.22 -1.21, 419.1 12.31, 416.95 32 M416.95 32 C419.17 61.9, 419.01 91.08, 416.95 109.49 M416.95 32 C417.09 62.3, 418 92.61, 416.95 109.49 M416.95 109.49 C415.32 130.84, 406.93 142.98, 384.95 141.49 M416.95 109.49 C416.43 130.01, 406.34 140.82, 384.95 141.49 M384.95 141.49 C310.8 141.87, 239.7 141.5, 32 141.49 M384.95 141.49 C249.1 141.85, 113.46 142.37, 32 141.49 M32 141.49 C9.27 140.64, -1.96 129.21, 0 109.49 M32 141.49 C10.45 143.44, -1.18 131.69, 0 109.49 M0 109.49 C0.24 93.72, -0.75 75.05, 0 32 M0 109.49 C1.43 81.68, 0.84 56.35, 0 32 M0 32 C0.49 8.85, 12.45 1.35, 32 0 M0 32 C-0.31 8.72, 10.44 -1.03, 32 0" stroke="#1e1e1e" stroke-width="2" fill="none"></path></g><g transform="translate(1214.8615041897633 702.9002925041673) rotate(0 81.78333282470703 22.5)"><text x="81.78333282470703" y="31.536" font-family="Virgil, Segoe UI Emoji" font-size="36px" fill="#1e1e1e" text-anchor="middle" style="white-space: pre;" direction="ltr" dominant-baseline="alphabetic">Callbacks</text></g><g stroke-linecap="round"><g transform="translate(1282.1566783994917 507.0406392101418) rotate(0 -0.4004320367374703 64.77568323535905)"><path d="M0.76 0.36 C0.36 21.82, -1.31 107.27, -1.53 128.63 M-0.3 -0.49 C-0.39 21.1, 0.95 108.05, 0.8 129.68" stroke="#1e1e1e" stroke-width="2" fill="none"></path></g><g transform="translate(1282.1566783994917 507.0406392101418) rotate(0 -0.4004320367374703 64.77568323535905)"><path d="M-7.88 106.24 C-4.07 113.68, -2.99 124.04, 0.8 129.68 M-7.88 106.24 C-5.43 111.01, -3.44 115.88, 0.8 129.68" stroke="#1e1e1e" stroke-width="2" fill="none"></path></g><g transform="translate(1282.1566783994917 507.0406392101418) rotate(0 -0.4004320367374703 64.77568323535905)"><path d="M9.22 106.14 C6.68 113.73, 1.41 124.12, 0.8 129.68 M9.22 106.14 C8.03 110.79, 6.37 115.69, 0.8 129.68" stroke="#1e1e1e" stroke-width="2" fill="none"></path></g></g><mask></mask><g stroke-linecap="round" transform="translate(457.6683043550521 660.5158417983946) rotate(0 222.0207170582696 76.01387261995)"><path d="M0 0 C106.19 -0.92, 210.59 -1.24, 444.04 0 M0 0 C158.95 1.08, 318.36 0.82, 444.04 0 M444.04 0 C446.13 54.77, 447.3 109.74, 444.04 152.03 M444.04 0 C444.63 39.74, 443.48 77.8, 444.04 152.03 M444.04 152.03 C310.45 154.48, 176.9 153.25, 0 152.03 M444.04 152.03 C351.06 151.05, 258.56 151.01, 0 152.03 M0 152.03 C1.85 99.54, 0.22 48.52, 0 0 M0 152.03 C-1.48 105.09, -1.8 57.94, 0 0" stroke="#1e1e1e" stroke-width="2" fill="none"></path></g><g transform="translate(617.0390198874428 714.0297144183448) rotate(0 62.650001525878906 22.5)"><text x="62.650001525878906" y="31.536" font-family="Virgil, Segoe UI Emoji" font-size="36px" fill="#1e1e1e" text-anchor="middle" style="white-space: pre;" direction="ltr" dominant-baseline="alphabetic">Session</text></g><g stroke-linecap="round"><g transform="translate(1085.160696358966 724.4458925887018) rotate(0 -87.20980334250248 1.4933493216549323)"><path d="M0 0 C-37.16 2.61, -70.02 2.74, -174.42 2.99 M0 0 C-65.68 3.59, -130.87 4.04, -174.42 2.99" stroke="#1e1e1e" stroke-width="2" fill="none"></path></g><g transform="translate(1085.160696358966 724.4458925887018) rotate(0 -87.20980334250248 1.4933493216549323)"><path d="M-150.83 -5.3 C-157.61 -3.08, -160.04 -1.88, -174.42 2.99 M-150.83 -5.3 C-159.9 -1.08, -168.47 1.36, -174.42 2.99" stroke="#1e1e1e" stroke-width="2" fill="none"></path></g><g transform="translate(1085.160696358966 724.4458925887018) rotate(0 -87.20980334250248 1.4933493216549323)"><path d="M-151.02 11.8 C-157.6 10.56, -160 8.32, -174.42 2.99 M-151.02 11.8 C-159.98 9.6, -168.48 5.62, -174.42 2.99" stroke="#1e1e1e" stroke-width="2" fill="none"></path></g></g><mask></mask><g stroke-linecap="round"><g transform="translate(452.48319701963214 701.2773426673655) rotate(0 -106.37892719921817 -90.28221080075161)"><path d="M0 0 C-83.43 -74.3, -169.48 -144.7, -212.76 -180.56 M0 0 C-63.98 -55.77, -127.88 -109.51, -212.76 -180.56" stroke="#1e1e1e" stroke-width="2" fill="none"></path></g><g transform="translate(452.48319701963214 701.2773426673655) rotate(0 -106.37892719921817 -90.28221080075161)"><path d="M-189.26 -172.02 C-197.71 -177.03, -209.13 -178.78, -212.76 -180.56 M-189.26 -172.02 C-196.63 -175.54, -203.98 -177.73, -212.76 -180.56" stroke="#1e1e1e" stroke-width="2" fill="none"></path></g><g transform="translate(452.48319701963214 701.2773426673655) rotate(0 -106.37892719921817 -90.28221080075161)"><path d="M-200.25 -158.92 C-204.3 -169.02, -211.36 -175.98, -212.76 -180.56 M-200.25 -158.92 C-204.34 -166.28, -208.4 -172.39, -212.76 -180.56" stroke="#1e1e1e" stroke-width="2" fill="none"></path></g></g><mask></mask></svg>