<svg version="1.1" xmlns="http://www.w3.org/2000/svg" viewBox="0 0 941.846615384902 1406.9795230315672" width="1883.693230769804" height="2813.9590460631343">
  <!-- svg-source:excalidraw -->
  
  <defs>
    <style class="style-fonts">
      @font-face {
        font-family: "Virgil";
        src: url("https://excalidraw.com/Virgil.woff2");
      }
      @font-face {
        font-family: "Cascadia";
        src: url("https://excalidraw.com/Cascadia.woff2");
      }
      @font-face {
        font-family: "Assistant";
        src: url("https://excalidraw.com/Assistant-Regular.woff2");
      }
    </style>
    
  </defs>
  <rect x="0" y="0" width="941.846615384902" height="1406.9795230315672" fill="#ffffff"></rect><g stroke-linecap="round" transform="translate(10 122.89189002962794) rotate(0 178.36918624681323 68.4877466179747)"><path d="M32 0 C121.31 -0.56, 210.27 -2.05, 324.74 0 M32 0 C146.95 -0.94, 260.62 -0.02, 324.74 0 M324.74 0 C347.09 1.36, 356.92 11.92, 356.74 32 M324.74 0 C347.62 -0.12, 357.41 8.67, 356.74 32 M356.74 32 C355.61 61.6, 358.13 90.87, 356.74 104.98 M356.74 32 C356.32 47.2, 357.54 61.84, 356.74 104.98 M356.74 104.98 C355.46 127.51, 347.04 135.26, 324.74 136.98 M356.74 104.98 C358.03 126.72, 344.89 135.18, 324.74 136.98 M324.74 136.98 C249.69 137, 172.96 136.72, 32 136.98 M324.74 136.98 C244.29 138.9, 164.77 138.83, 32 136.98 M32 136.98 C10.98 138.39, -0.09 128.16, 0 104.98 M32 136.98 C10.44 136.53, -0.2 126.84, 0 104.98 M0 104.98 C-2.16 83.11, -0.94 63.39, 0 32 M0 104.98 C-0.85 89.1, -0.76 71.82, 0 32 M0 32 C-0.78 9.52, 11.67 -0.25, 32 0 M0 32 C1.62 12.94, 9.06 0.83, 32 0" stroke="#1e1e1e" stroke-width="2" fill="none"></path></g><g transform="translate(110.06918319505542 168.8796366476026) rotate(0 78.30000305175781 22.5)"><text x="78.30000305175781" y="31.536" font-family="Virgil, Segoe UI Emoji" font-size="36px" fill="#1e1e1e" text-anchor="middle" style="white-space: pre;" direction="ltr" dominant-baseline="alphabetic">CALLER </text></g><g stroke-linecap="round" transform="translate(508.229541330761 476.7940253597061) rotate(0 188.90576264957843 78.27171042054249)"><path d="M32 0 C154.64 -2.6, 279 -1.83, 345.81 0 M32 0 C130.77 -1.62, 230.9 -1.92, 345.81 0 M345.81 0 C368.48 -1.9, 376.63 12.41, 377.81 32 M345.81 0 C368.18 1.09, 376.84 11.56, 377.81 32 M377.81 32 C378.42 53.95, 379.22 75.03, 377.81 124.54 M377.81 32 C378.99 64.38, 379.46 96.57, 377.81 124.54 M377.81 124.54 C378.96 143.9, 365.76 156.49, 345.81 156.54 M377.81 124.54 C379.18 144.34, 368.53 156.8, 345.81 156.54 M345.81 156.54 C242.78 157.31, 138.72 158.05, 32 156.54 M345.81 156.54 C258.35 158.49, 169.42 158.22, 32 156.54 M32 156.54 C11.99 157.23, -0.07 144.48, 0 124.54 M32 156.54 C12.78 155.15, -1.37 146.53, 0 124.54 M0 124.54 C-0.74 104.17, 1.2 86.7, 0 32 M0 124.54 C-0.83 101, -1.07 78.75, 0 32 M0 32 C1.79 12.33, 9.52 -0.91, 32 0 M0 32 C-1.58 12.91, 11.82 1.34, 32 0" stroke="#1e1e1e" stroke-width="2" fill="none"></path></g><g transform="translate(626.3353009285815 532.5657357802486) rotate(0 70.80000305175781 22.5)"><text x="70.80000305175781" y="31.536" font-family="Virgil, Segoe UI Emoji" font-size="36px" fill="#1e1e1e" text-anchor="middle" style="white-space: pre;" direction="ltr" dominant-baseline="alphabetic">Provider</text></g><g stroke-linecap="round" transform="translate(514.2504421323412 10.000000000000028) rotate(0 190.41098784997365 197.93711385194885)"><path d="M196 0.63 C212.26 -1.84, 229.73 4.12, 246.11 9.34 C262.49 14.56, 279.66 22.27, 294.29 31.94 C308.91 41.61, 322.43 54.16, 333.84 67.35 C345.25 80.55, 355.4 95.17, 362.73 111.1 C370.07 127.02, 374.93 145.19, 377.86 162.9 C380.78 180.6, 382.02 199.56, 380.29 217.33 C378.57 235.1, 373.81 253.11, 367.5 269.52 C361.18 285.94, 352.41 301.5, 342.41 315.84 C332.4 330.19, 320.93 344.63, 307.45 355.61 C293.97 366.59, 277.46 375.27, 261.53 381.73 C245.61 388.19, 228.99 392.42, 211.9 394.37 C194.81 396.32, 175.94 396.15, 159.01 393.44 C142.09 390.73, 125.64 385.82, 110.34 378.13 C95.03 370.43, 80.15 358.84, 67.18 347.26 C54.2 335.69, 42.06 323.32, 32.47 308.67 C22.89 294.02, 14.98 276.34, 9.67 259.36 C4.37 242.38, 1.48 224.52, 0.64 206.78 C-0.21 189.04, 0.66 170.48, 4.59 152.91 C8.51 135.34, 15.84 116.92, 24.18 101.37 C32.52 85.81, 42.67 72.16, 54.6 59.57 C66.54 46.97, 80.94 34.82, 95.78 25.8 C110.62 16.78, 125.11 9.62, 143.64 5.44 C162.18 1.27, 195.02 0.8, 207 0.75 C218.97 0.69, 215.74 1.83, 215.48 5.11 M222.72 2.51 C238.88 2.03, 255 9.98, 270.58 17.64 C286.17 25.3, 302.86 36.46, 316.22 48.47 C329.58 60.48, 341.33 74.57, 350.72 89.69 C360.11 104.82, 367.78 122.07, 372.58 139.2 C377.38 156.32, 378.83 174.92, 379.52 192.45 C380.21 209.98, 380.56 227.15, 376.71 244.39 C372.86 261.62, 365.18 280.33, 356.42 295.86 C347.65 311.39, 336.18 324.96, 324.1 337.56 C312.01 350.16, 298.82 362.45, 283.91 371.46 C269 380.48, 251.1 387.45, 234.62 391.66 C218.14 395.86, 202.17 397.75, 185.03 396.7 C167.89 395.65, 148.17 391.02, 131.77 385.37 C115.38 379.72, 101.05 372.51, 86.68 362.8 C72.31 353.09, 56.92 340.18, 45.58 327.13 C34.25 314.07, 25.87 300.25, 18.67 284.45 C11.47 268.64, 5.36 250.12, 2.4 232.3 C-0.56 214.48, -0.87 195.31, 0.92 177.54 C2.7 159.78, 6.73 142.33, 13.11 125.72 C19.5 109.11, 29.07 92.01, 39.21 77.89 C49.34 63.77, 60.58 51.86, 73.92 41.01 C87.25 30.15, 102.93 19.43, 119.22 12.77 C135.51 6.12, 154.33 2.71, 171.66 1.09 C188.99 -0.54, 214.72 2.2, 223.2 3.03 C231.68 3.86, 223.35 2.62, 222.54 6.09" stroke="#1e1e1e" stroke-width="2" fill="none"></path></g><g transform="translate(632.070532312927 185.47443839874214) rotate(0 72.44999694824219 22.5)"><text x="72.44999694824219" y="31.536" font-family="Virgil, Segoe UI Emoji" font-size="36px" fill="#1e1e1e" text-anchor="middle" style="white-space: pre;" direction="ltr" dominant-baseline="alphabetic">Auth JS</text></g><g stroke-linecap="round"><g transform="translate(374.26449849560163 202.66882565056616) rotate(0 62.46684581639448 0)"><path d="M0 0 C49.58 1.31, 99.41 1.75, 124.93 0 M0 0 C34.13 0.68, 68.83 -0.03, 124.93 0" stroke="#1e1e1e" stroke-width="2" fill="none"></path></g><g transform="translate(374.26449849560163 202.66882565056616) rotate(0 62.46684581639448 0)"><path d="M101.46 8.61 C111.27 6.13, 121.38 3.2, 124.93 0 M101.46 8.61 C107.91 6.84, 114.83 3.77, 124.93 0" stroke="#1e1e1e" stroke-width="2" fill="none"></path></g><g transform="translate(374.26449849560163 202.66882565056616) rotate(0 62.46684581639448 0)"><path d="M101.42 -8.49 C111.35 -4.28, 121.49 -0.52, 124.93 0 M101.42 -8.49 C107.71 -5.58, 114.64 -3.96, 124.93 0" stroke="#1e1e1e" stroke-width="2" fill="none"></path></g></g><mask></mask><g stroke-linecap="round"><g transform="translate(690.3617905785617 416.4107631625318) rotate(0 0 21.912892496414543)"><path d="M0 0 C0.63 14.53, 0.88 29.67, 0 43.83 M0 0 C0.32 13.53, 0.39 27.46, 0 43.83" stroke="#1e1e1e" stroke-width="2" fill="none"></path></g><g transform="translate(690.3617905785617 416.4107631625318) rotate(0 0 21.912892496414543)"><path d="M-7.15 23.11 C-4.22 29.86, -1.56 37.23, 0 43.83 M-7.15 23.11 C-4.57 29.27, -2.22 35.86, 0 43.83" stroke="#1e1e1e" stroke-width="2" fill="none"></path></g><g transform="translate(690.3617905785617 416.4107631625318) rotate(0 0 21.912892496414543)"><path d="M7.83 23.36 C5.73 30.03, 3.35 37.32, 0 43.83 M7.83 23.36 C5.65 29.49, 3.24 36, 0 43.83" stroke="#1e1e1e" stroke-width="2" fill="none"></path></g></g><mask></mask><g stroke-linecap="round" transform="translate(502.8574332723132 741.5577681165892) rotate(0 197.18450125175127 63.97207101678947)"><path d="M0 0 C94.11 -0.81, 188.14 -2.97, 394.37 0 M0 0 C150.1 0.97, 301.47 1.1, 394.37 0 M394.37 0 C395.07 48.95, 393.97 94.78, 394.37 127.94 M394.37 0 C395.74 46.7, 396.3 92.85, 394.37 127.94 M394.37 127.94 C313.07 128.2, 232.99 129.12, 0 127.94 M394.37 127.94 C258.58 129.39, 123.43 130, 0 127.94 M0 127.94 C2.08 87.26, 1.91 44.25, 0 0 M0 127.94 C-0.51 89.5, -0.36 52.8, 0 0" stroke="#1e1e1e" stroke-width="2" fill="none"></path></g><g transform="translate(617.1586032252363 783.0298391333787) rotate(0 82.88333129882812 22.5)"><text x="82.88333129882812" y="31.536" font-family="Virgil, Segoe UI Emoji" font-size="36px" fill="#1e1e1e" text-anchor="middle" style="white-space: pre;" direction="ltr" dominant-baseline="alphabetic">Authorize</text></g><g stroke-linecap="round"><g transform="translate(681.4860965627972 643.8740226035571) rotate(0 0.012508335260918102 41.31574675454067)"><path d="M0 0 C0.05 26.53, 0.55 50.82, 0.03 82.63 M0 0 C1.17 17.42, 0.29 33.65, 0.03 82.63" stroke="#1e1e1e" stroke-width="2" fill="none"></path></g><g transform="translate(681.4860965627972 643.8740226035571) rotate(0 0.012508335260918102 41.31574675454067)"><path d="M-8.31 59.06 C-5.25 67.35, -2.18 73.35, 0.03 82.63 M-8.31 59.06 C-5.95 64.16, -5.1 68.09, 0.03 82.63" stroke="#1e1e1e" stroke-width="2" fill="none"></path></g><g transform="translate(681.4860965627972 643.8740226035571) rotate(0 0.012508335260918102 41.31574675454067)"><path d="M8.79 59.22 C6.55 67.36, 4.33 73.31, 0.03 82.63 M8.79 59.22 C7.59 64.34, 4.88 68.24, 0.03 82.63" stroke="#1e1e1e" stroke-width="2" fill="none"></path></g></g><mask></mask><g stroke-linecap="round" transform="translate(499.8469828715231 985.4042505805869) rotate(0 208.47369025471414 70.74558441856732)"><path d="M32 0 C153.52 0.81, 275.93 -0.31, 384.95 0 M32 0 C124.3 -0.02, 217.7 0.11, 384.95 0 M384.95 0 C407.66 0.99, 417.99 9.13, 416.95 32 M384.95 0 C407.22 -1.21, 419.1 12.31, 416.95 32 M416.95 32 C419.17 61.9, 419.01 91.08, 416.95 109.49 M416.95 32 C417.09 62.3, 418 92.61, 416.95 109.49 M416.95 109.49 C415.32 130.84, 406.93 142.98, 384.95 141.49 M416.95 109.49 C416.43 130.01, 406.34 140.82, 384.95 141.49 M384.95 141.49 C310.8 141.87, 239.7 141.5, 32 141.49 M384.95 141.49 C249.1 141.85, 113.46 142.37, 32 141.49 M32 141.49 C9.27 140.64, -1.96 129.21, 0 109.49 M32 141.49 C10.45 143.44, -1.18 131.69, 0 109.49 M0 109.49 C0.24 93.72, -0.75 75.05, 0 32 M0 109.49 C1.43 81.68, 0.84 56.35, 0 32 M0 32 C0.49 8.85, 12.45 1.35, 32 0 M0 32 C-0.31 8.72, 10.44 -1.03, 32 0" stroke="#1e1e1e" stroke-width="2" fill="none"></path></g><g transform="translate(626.5373403015302 1033.6498349991539) rotate(0 81.78333282470703 22.5)"><text x="81.78333282470703" y="31.536" font-family="Virgil, Segoe UI Emoji" font-size="36px" fill="#1e1e1e" text-anchor="middle" style="white-space: pre;" direction="ltr" dominant-baseline="alphabetic">Callbacks</text></g><g stroke-linecap="round"><g transform="translate(693.31785168025 883.0489369537236) rotate(0 -0.20152412643170692 42.14630561106151)"><path d="M0.76 0.36 C0.43 14.28, -0.98 69.56, -1.13 83.37 M-0.3 -0.49 C-0.32 13.56, 1.28 70.34, 1.2 84.42" stroke="#1e1e1e" stroke-width="2" fill="none"></path></g><g transform="translate(693.31785168025 883.0489369537236) rotate(0 -0.20152412643170692 42.14630561106151)"><path d="M-7.66 61.05 C-3.79 68.46, -2.64 78.8, 1.2 84.42 M-7.66 61.05 C-5.18 65.81, -3.15 70.67, 1.2 84.42" stroke="#1e1e1e" stroke-width="2" fill="none"></path></g><g transform="translate(693.31785168025 883.0489369537236) rotate(0 -0.20152412643170692 42.14630561106151)"><path d="M9.44 60.82 C6.96 68.43, 1.76 78.84, 1.2 84.42 M9.44 60.82 C8.28 65.49, 6.67 70.39, 1.2 84.42" stroke="#1e1e1e" stroke-width="2" fill="none"></path></g></g><mask></mask><g stroke-linecap="round" transform="translate(487.80518126836273 1244.9517777916672) rotate(0 222.0207170582696 76.01387261995)"><path d="M0 0 C106.19 -0.92, 210.59 -1.24, 444.04 0 M0 0 C158.95 1.08, 318.36 0.82, 444.04 0 M444.04 0 C446.13 54.77, 447.3 109.74, 444.04 152.03 M444.04 0 C444.63 39.74, 443.48 77.8, 444.04 152.03 M444.04 152.03 C310.45 154.48, 176.9 153.25, 0 152.03 M444.04 152.03 C351.06 151.05, 258.56 151.01, 0 152.03 M0 152.03 C1.85 99.54, 0.22 48.52, 0 0 M0 152.03 C-1.48 105.09, -1.8 57.94, 0 0" stroke="#1e1e1e" stroke-width="2" fill="none"></path></g><g transform="translate(647.1758968007534 1298.4656504116174) rotate(0 62.650001525878906 22.5)"><text x="62.650001525878906" y="31.536" font-family="Virgil, Segoe UI Emoji" font-size="36px" fill="#1e1e1e" text-anchor="middle" style="white-space: pre;" direction="ltr" dominant-baseline="alphabetic">Session</text></g><g stroke-linecap="round"><g transform="translate(696.2015307105394 1129.9058698185117) rotate(0 -0.19227307668040794 53.00727838539274)"><path d="M0 0 C-3 21.71, -0.75 42.63, -0.38 106.01 M0 0 C-0.58 40.7, -0.44 79.83, -0.38 106.01" stroke="#1e1e1e" stroke-width="2" fill="none"></path></g><g transform="translate(696.2015307105394 1129.9058698185117) rotate(0 -0.19227307668040794 53.00727838539274)"><path d="M-8.98 82.54 C-9.4 87.51, -5.34 91.77, -0.38 106.01 M-8.98 82.54 C-6 92.18, -2.49 100.32, -0.38 106.01" stroke="#1e1e1e" stroke-width="2" fill="none"></path></g><g transform="translate(696.2015307105394 1129.9058698185117) rotate(0 -0.19227307668040794 53.00727838539274)"><path d="M8.12 82.51 C4.25 87.65, 4.86 91.92, -0.38 106.01 M8.12 82.51 C4.68 92.31, 1.77 100.46, -0.38 106.01" stroke="#1e1e1e" stroke-width="2" fill="none"></path></g></g><mask></mask></svg>